<svg width="39" height="36" viewBox="0 0 39 36" fill="none" xmlns="http://www.w3.org/2000/svg">
<path d="M18.2062 35.3465C17.749 34.9109 17.5095 34.3564 17.4879 33.6832C17.468 33.0099 17.6866 32.4554 18.1438 32.0198L30.3644 20.3762H2.494C1.78737 20.3762 1.19463 20.1481 0.715778 19.6919C0.238593 19.2372 0 18.6733 0 18C0 17.3267 0.238593 16.762 0.715778 16.3057C1.19463 15.8511 1.78737 15.6238 2.494 15.6238H30.3644L18.1438 3.9802C17.6866 3.54455 17.468 2.9901 17.4879 2.31683C17.5095 1.64356 17.749 1.08911 18.2062 0.653464C18.6634 0.217821 19.2454 0 19.952 0C20.6586 0 21.2406 0.217821 21.6978 0.653464L38.1582 16.3366C38.4076 16.5347 38.5847 16.7818 38.6894 17.078C38.7925 17.3758 38.8441 17.6832 38.8441 18C38.8441 18.3168 38.7925 18.6139 38.6894 18.8911C38.5847 19.1683 38.4076 19.4257 38.1582 19.6634L21.6978 35.3465C21.2406 35.7822 20.6586 36 19.952 36C19.2454 36 18.6634 35.7822 18.2062 35.3465Z" fill="white"/>
</svg>
