<svg width="18" height="18" viewBox="0 0 18 18" fill="none" xmlns="http://www.w3.org/2000/svg">
<path d="M12.2603 9.46364L8.51478 5.69317L11.2865 2.94646L10.5623 2.22233L5.79305 6.99161C5.59329 7.19137 5.36023 7.29125 5.09388 7.29125C4.82754 7.29125 4.59448 7.19137 4.39472 6.99161C4.19496 6.79185 4.09508 6.55463 4.09508 6.27996C4.09508 6.00529 4.19496 5.76808 4.39472 5.56832L9.13903 0.824011C9.53855 0.42449 10.0088 0.22473 10.5498 0.22473C11.0909 0.22473 11.5611 0.42449 11.9606 0.824011L12.6848 1.54814L13.9333 0.29964C14.133 0.0998801 14.3702 0 14.6449 0C14.9196 0 15.1568 0.0998801 15.3566 0.29964L17.6788 2.62185C17.8785 2.82161 17.9784 3.05883 17.9784 3.3335C17.9784 3.60817 17.8785 3.84538 17.6788 4.04514L12.2603 9.46364ZM0.998801 17.9784C0.715807 17.9784 0.478592 17.8827 0.287155 17.6913C0.0957184 17.4998 0 17.2626 0 16.9796V15.0569C0 14.7906 0.04994 14.5367 0.14982 14.2953C0.2497 14.054 0.391197 13.8417 0.574311 13.6586L7.09149 7.11646L10.862 10.862L4.31981 17.4041C4.1367 17.5872 3.92446 17.7287 3.68308 17.8286C3.4417 17.9285 3.18784 17.9784 2.92149 17.9784H0.998801Z" fill="#171717"/>
</svg>
