<svg width="17" height="17" viewBox="0 0 17 17" fill="none" xmlns="http://www.w3.org/2000/svg">
<path d="M8.49983 0C3.80554 0 0 3.8196 0 8.53122C0 12.532 2.74443 15.8892 6.44661 16.8113V11.1384H4.69395V8.53122H6.44661V7.40783C6.44661 4.50415 7.75593 3.15826 10.5962 3.15826C11.1348 3.15826 12.064 3.26439 12.4441 3.37017V5.73332C12.2435 5.71217 11.895 5.70159 11.4622 5.70159C10.0686 5.70159 9.53001 6.23155 9.53001 7.60917V8.53122H12.3064L11.8294 11.1384H9.53001V17C13.7388 16.4898 17 12.8931 17 8.53122C16.9997 3.8196 13.1941 0 8.49983 0Z" fill="white"/>
</svg>
