<svg width="18" height="18" viewBox="0 0 18 18" fill="none" xmlns="http://www.w3.org/2000/svg">
<path d="M8.70886 1.56828C11.0358 1.56828 11.3113 1.57848 12.2264 1.6193C13.0769 1.65672 13.5362 1.7996 13.8423 1.91867C14.2472 2.07516 14.5397 2.26566 14.8425 2.56843C15.1487 2.8746 15.3358 3.16377 15.4922 3.56859C15.6113 3.87476 15.7542 4.33742 15.7916 5.18449C15.8324 6.10301 15.8426 6.37856 15.8426 8.70206C15.8426 11.029 15.8324 11.3045 15.7916 12.2196C15.7542 13.0701 15.6113 13.5294 15.4922 13.8355C15.3358 14.2403 15.1453 14.5329 14.8425 14.8357C14.5363 15.1419 14.2472 15.329 13.8423 15.4854C13.5362 15.6045 13.0735 15.7474 12.2264 15.7848C11.3079 15.8256 11.0324 15.8358 8.70886 15.8358C6.38196 15.8358 6.10641 15.8256 5.1913 15.7848C4.34082 15.7474 3.88157 15.6045 3.5754 15.4854C3.17057 15.329 2.87801 15.1385 2.57524 14.8357C2.26907 14.5295 2.08196 14.2403 1.92547 13.8355C1.80641 13.5294 1.66353 13.0667 1.62611 12.2196C1.58528 11.3011 1.57508 11.0256 1.57508 8.70206C1.57508 6.37516 1.58528 6.0996 1.62611 5.18449C1.66353 4.33402 1.80641 3.87476 1.92547 3.56859C2.08196 3.16377 2.27247 2.8712 2.57524 2.56843C2.88141 2.26226 3.17057 2.07516 3.5754 1.91867C3.88157 1.7996 4.34423 1.65672 5.1913 1.6193C6.10641 1.57848 6.38196 1.56828 8.70886 1.56828ZM8.70886 0C6.34454 0 6.04858 0.0102057 5.11986 0.0510285C4.19454 0.0918513 3.55839 0.241535 3.00728 0.455854C2.43236 0.68038 1.94589 0.976345 1.46282 1.46282C0.976345 1.94589 0.68038 2.43236 0.455854 3.00388C0.241535 3.55839 0.0918513 4.19114 0.0510285 5.11646C0.0102057 6.04858 0 6.34454 0 8.70886C0 11.0732 0.0102057 11.3691 0.0510285 12.2979C0.0918513 13.2232 0.241535 13.8593 0.455854 14.4104C0.68038 14.9854 0.976345 15.4718 1.46282 15.9549C1.94589 16.438 2.43236 16.7373 3.00388 16.9585C3.55839 17.1728 4.19114 17.3225 5.11646 17.3633C6.04517 17.4041 6.34114 17.4143 8.70546 17.4143C11.0698 17.4143 11.3657 17.4041 12.2945 17.3633C13.2198 17.3225 13.8559 17.1728 14.407 16.9585C14.9786 16.7373 15.465 16.438 15.9481 15.9549C16.4312 15.4718 16.7305 14.9854 16.9517 14.4138C17.166 13.8593 17.3157 13.2266 17.3565 12.3013C17.3973 11.3725 17.4075 11.0766 17.4075 8.71226C17.4075 6.34794 17.3973 6.05198 17.3565 5.12326C17.3157 4.19794 17.166 3.56179 16.9517 3.01068C16.7373 2.43236 16.4414 1.94589 15.9549 1.46282C15.4718 0.979747 14.9854 0.68038 14.4138 0.459256C13.8593 0.244937 13.2266 0.0952532 12.3013 0.0544304C11.3691 0.0102057 11.0732 0 8.70886 0Z" fill="white"/>
<path d="M8.70885 4.23535C6.23907 4.23535 4.23535 6.23907 4.23535 8.70885C4.23535 11.1786 6.23907 13.1823 8.70885 13.1823C11.1786 13.1823 13.1823 11.1786 13.1823 8.70885C13.1823 6.23907 11.1786 4.23535 8.70885 4.23535ZM8.70885 11.6107C7.10655 11.6107 5.80703 10.3111 5.80703 8.70885C5.80703 7.10655 7.10655 5.80703 8.70885 5.80703C10.3111 5.80703 11.6107 7.10655 11.6107 8.70885C11.6107 10.3111 10.3111 11.6107 8.70885 11.6107Z" fill="white"/>
<path d="M14.4037 4.05842C14.4037 4.63675 13.9342 5.10281 13.3593 5.10281C12.781 5.10281 12.3149 4.63334 12.3149 4.05842C12.3149 3.4801 12.7844 3.01404 13.3593 3.01404C13.9342 3.01404 14.4037 3.4835 14.4037 4.05842Z" fill="white"/>
</svg>
