<svg width="21" height="22" viewBox="0 0 21 22" fill="none" xmlns="http://www.w3.org/2000/svg">
<path d="M18.1286 11.9843C18.1726 11.6432 18.1946 11.2907 18.1946 10.9155C18.1946 10.5516 18.1726 10.1878 18.1176 9.84666L20.3509 8.05016C20.549 7.89097 20.604 7.58397 20.483 7.35657L18.3706 3.58164C18.2386 3.33149 17.9636 3.2519 17.7215 3.33149L15.0921 4.42304C14.542 3.99097 13.9589 3.62712 13.3098 3.35423L12.9138 0.466181C12.8698 0.193295 12.6497 0 12.3857 0H8.16106C7.89702 0 7.68798 0.193295 7.64398 0.466181L7.24792 3.35423C6.59882 3.62712 6.00472 4.00234 5.46564 4.42304L2.83624 3.33149C2.5942 3.24053 2.31916 3.33149 2.18714 3.58164L0.0858136 7.35657C-0.0462067 7.59535 -0.00220008 7.89097 0.217834 8.05016L2.45118 9.84666C2.39617 10.1878 2.35216 10.563 2.35216 10.9155C2.35216 11.2679 2.37417 11.6432 2.42917 11.9843L0.19583 13.7808C-0.00220006 13.94 -0.0572084 14.247 0.0638102 14.4744L2.17614 18.2493C2.30816 18.4994 2.5832 18.579 2.82524 18.4994L5.45464 17.4079C6.00472 17.84 6.58781 18.2038 7.23691 18.4767L7.63298 21.3648C7.68798 21.6376 7.89702 21.8309 8.16106 21.8309H12.3857C12.6497 21.8309 12.8698 21.6376 12.9028 21.3648L13.2988 18.4767C13.9479 18.2038 14.542 17.84 15.0811 17.4079L17.7105 18.4994C17.9526 18.5904 18.2276 18.4994 18.3596 18.2493L20.472 14.4744C20.604 14.2242 20.549 13.94 20.3399 13.7808L18.1286 11.9843ZM10.2734 15.0088C8.09505 15.0088 6.31277 13.1668 6.31277 10.9155C6.31277 8.66415 8.09505 6.82217 10.2734 6.82217C12.4517 6.82217 14.234 8.66415 14.234 10.9155C14.234 13.1668 12.4517 15.0088 10.2734 15.0088Z" fill="#171717"/>
</svg>
