<svg width="20" height="20" viewBox="0 0 20 20" fill="none" xmlns="http://www.w3.org/2000/svg">
<path d="M16.9694 9.17266H15.5935V5.5036C15.5935 4.4946 14.768 3.66906 13.759 3.66906H10.0899V2.29317C10.0899 1.02734 9.06259 0 7.79676 0C6.53094 0 5.5036 1.02734 5.5036 2.29317V3.66906H1.83453C0.82554 3.66906 0.00917265 4.4946 0.00917265 5.5036V8.98921H1.3759C2.74263 8.98921 3.85252 10.0991 3.85252 11.4658C3.85252 12.8326 2.74263 13.9424 1.3759 13.9424H0V17.4281C0 18.437 0.82554 19.2626 1.83453 19.2626H5.32014V17.8867C5.32014 16.52 6.43004 15.4101 7.79676 15.4101C9.16349 15.4101 10.2734 16.52 10.2734 17.8867V19.2626H13.759C14.768 19.2626 15.5935 18.437 15.5935 17.4281V13.759H16.9694C18.2353 13.759 19.2626 12.7317 19.2626 11.4658C19.2626 10.2 18.2353 9.17266 16.9694 9.17266Z" fill="#171717"/>
</svg>
