<svg width="18" height="17" viewBox="0 0 18 17" fill="none" xmlns="http://www.w3.org/2000/svg">
<path d="M13.1549 15.0248V1.66942C13.6373 1.66942 14.0504 1.83303 14.3941 2.16023C14.7373 2.48689 14.9089 2.87976 14.9089 3.33885V13.3554C14.9089 13.8145 14.7373 14.2076 14.3941 14.5348C14.0504 14.8615 13.6373 15.0248 13.1549 15.0248ZM1.75399 16.6942C1.27164 16.6942 0.858871 16.5309 0.515674 16.2043C0.171891 15.8771 0 15.4839 0 15.0248V1.66942C0 1.21033 0.171891 0.817183 0.515674 0.489976C0.858871 0.163325 1.27164 0 1.75399 0H9.64696C10.1293 0 10.5424 0.163325 10.8862 0.489976C11.2293 0.817183 11.4009 1.21033 11.4009 1.66942V15.0248C11.4009 15.4839 11.2293 15.8771 10.8862 16.2043C10.5424 16.5309 10.1293 16.6942 9.64696 16.6942H1.75399ZM16.6629 13.3554V3.33885C17.0283 3.33885 17.3388 3.46072 17.5943 3.70445C17.8504 3.94763 17.9784 4.24312 17.9784 4.59092V12.1033C17.9784 12.4511 17.8504 12.7466 17.5943 12.9898C17.3388 13.2335 17.0283 13.3554 16.6629 13.3554Z" fill="#171717"/>
</svg>
