<svg width="21" height="16" viewBox="0 0 21 16" fill="none" xmlns="http://www.w3.org/2000/svg">
<path d="M2.05468 15.4101C1.48964 15.4101 1.00611 15.2216 0.604075 14.8447C0.201358 14.4672 0 14.0135 0 13.4838V1.92626C0 1.39654 0.201358 0.943225 0.604075 0.56632C1.00611 0.188773 1.48964 0 2.05468 0H18.4921C19.0571 0 19.541 0.188773 19.9437 0.56632C20.3457 0.943225 20.5468 1.39654 20.5468 1.92626V13.4838C20.5468 14.0135 20.3457 14.4672 19.9437 14.8447C19.541 15.2216 19.0571 15.4101 18.4921 15.4101H2.05468ZM2.05468 13.4838H12.8417V10.1129H2.05468V13.4838ZM14.8964 13.4838H18.4921V4.81565H14.8964V13.4838ZM2.05468 8.1866H12.8417V4.81565H2.05468V8.1866Z" fill="#171717"/>
</svg>
